<svg width="584" height="445" viewBox="0 0 584 445" fill="none" xmlns="http://www.w3.org/2000/svg">
<path d="M291.712 444.5L299.71 333.452L306.169 243.321C325.549 235.324 334.47 212.868 326.472 193.796C318.474 174.416 296.018 165.496 276.946 173.493C257.567 181.491 248.646 203.947 256.644 223.019C260.335 232.247 267.718 239.323 276.946 243.321L283.406 333.452L291.712 444.5Z" fill="#F3771C"/>
<path d="M33.0095 208.254C33.0095 271.007 55.7728 331.606 96.9929 378.671L72.3839 400.511C-29.7435 284.234 -22.976 108.28 87.4569 0L88.6873 1.23045L160.976 66.1367C93.3015 128.274 78.5361 229.479 126.216 308.228L151.133 285.772C114.834 219.943 129.292 137.81 185.585 88.2848L210.502 110.433L232.65 130.12L255.413 150.73C246.8 155.96 239.725 163.342 234.188 171.955C214.193 203.639 223.422 245.475 255.106 265.47C259.72 268.238 264.642 270.699 269.871 272.545L272.332 303.921C219.423 293.155 185.278 241.783 196.044 188.874C198.813 175.647 204.35 162.727 212.04 151.653L190.199 131.966C154.516 179.646 156.362 245.782 195.121 291.001L121.602 356.83C49.3129 274.083 47.1596 151.345 116.372 66.1367L91.7634 44.2962C57.0032 86.4391 36.3932 138.733 33.3171 193.488V193.796C33.3171 198.41 33.0095 203.332 33.0095 208.254ZM313.552 272.237C348.927 260.24 367.999 221.789 356.003 186.413C351.081 171.648 340.93 159.036 327.702 150.73L350.466 130.12L372.614 110.433L397.53 88.2848C453.823 137.81 468.281 219.943 431.983 285.772L456.899 308.228C504.272 229.479 489.814 128.274 422.139 66.1367L494.428 1.23045L495.659 0C606.399 108.28 612.859 284.234 510.732 400.511L486.123 378.671C527.343 331.606 550.106 271.007 550.106 208.254C550.106 203.332 550.106 198.41 549.798 193.488V193.181C546.722 138.426 526.112 86.1315 491.352 43.9886L466.743 65.8291C535.956 151.038 533.803 273.775 461.514 356.523L387.994 290.694C427.061 245.475 429.214 179.338 393.224 131.658L371.383 151.345C402.452 195.334 392.301 256.241 348.312 287.618C337.238 295.616 324.626 300.845 311.091 303.614L313.552 272.237Z" fill="#3C5280"/>
</svg>
