<?xml version="1.0" standalone="no"?>
<!DOCTYPE svg PUBLIC "-//W3C//DTD SVG 20010904//EN"
 "http://www.w3.org/TR/2001/REC-SVG-20010904/DTD/svg10.dtd">
<svg version="1.0" xmlns="http://www.w3.org/2000/svg"
 width="1280.000000pt" height="640.000000pt" viewBox="0 0 1280.000000 640.000000"
 preserveAspectRatio="xMidYMid meet">
<g transform="translate(0.000000,640.000000) scale(0.100000,-0.100000)"
fill="#000000" stroke="none">
<path d="M12193 5756 c-122 -125 -235 -230 -269 -252 -32 -20 -114 -82 -184
-138 -197 -158 -202 -162 -270 -196 -35 -18 -143 -82 -239 -143 -260 -163
-348 -217 -356 -217 -3 0 -39 -20 -78 -43 -41 -25 -130 -64 -207 -90 -74 -25
-250 -85 -390 -132 -140 -48 -282 -91 -315 -96 -33 -4 -118 -22 -190 -38 -71
-17 -157 -33 -190 -36 -33 -3 -105 -10 -160 -15 -290 -28 -512 -40 -919 -49
-356 -9 -454 -8 -467 2 -9 6 -42 30 -73 52 -31 22 -58 48 -62 58 -3 9 -11 17
-19 17 -17 0 -233 146 -390 264 -179 133 -435 331 -560 431 -34 28 -140 111
-235 185 -95 74 -210 169 -254 210 -268 247 -357 310 -441 310 l-51 0 -150
-147 c-83 -82 -222 -223 -310 -315 -87 -92 -164 -169 -170 -172 -6 -2 -29 0
-50 5 -29 6 -53 4 -92 -8 -67 -20 -106 -9 -187 55 l-58 46 6 302 6 302 -29 12
c-43 18 -92 -2 -138 -56 -38 -45 -157 -292 -187 -390 -29 -93 -47 -119 -83
-122 -27 -3 -38 3 -60 29 -124 150 -240 241 -347 274 -72 21 -337 21 -402 -1
-123 -41 -263 -100 -310 -131 -28 -19 -97 -79 -153 -133 -126 -123 -135 -125
-185 -37 -275 471 -390 620 -460 593 -27 -10 -96 -127 -94 -160 2 -42 -20
-393 -27 -436 -8 -44 -24 -216 -29 -295 -7 -138 -49 -579 -71 -742 -9 -63 -24
-71 -85 -42 -28 13 -61 35 -72 49 -14 15 -30 24 -43 22 -12 -2 -34 8 -49 21
-24 20 -28 32 -35 108 l-7 84 -2 -66 c-1 -81 -15 -98 -60 -74 -17 8 -38 27
-47 40 -12 18 -22 24 -36 19 -10 -3 -30 2 -44 11 -23 14 -25 21 -19 56 7 43
-28 181 -51 200 -15 12 -37 3 -28 -12 3 -6 8 -39 10 -74 2 -50 -1 -69 -15 -86
l-18 -23 -49 25 c-27 13 -53 34 -59 46 -7 17 -15 21 -33 16 -34 -8 -58 20 -66
77 -4 27 -18 74 -31 105 -14 30 -25 67 -25 82 0 14 -3 23 -7 19 -5 -4 -8 -43
-8 -86 0 -62 -4 -83 -17 -96 -22 -23 -60 -7 -86 34 -13 23 -21 27 -33 19 -19
-12 -83 27 -98 60 -7 15 -16 20 -30 16 -24 -6 -91 40 -91 63 0 8 -10 14 -23
14 -33 0 -103 53 -111 83 -4 18 -11 24 -24 20 -23 -6 -86 62 -78 84 4 11 2 13
-9 10 -18 -8 -45 18 -45 44 0 12 -5 17 -10 14 -15 -9 -78 62 -85 96 -4 16 -12
29 -18 29 -6 0 -24 12 -40 28 -26 24 -25 21 9 -28 21 -30 69 -95 107 -144 37
-50 66 -95 63 -102 -3 -7 5 -16 17 -20 31 -9 177 -133 177 -149 0 -7 -6 -16
-12 -18 -7 -3 6 -6 30 -6 33 -1 50 -7 71 -28 15 -16 41 -33 57 -38 16 -6 33
-20 39 -33 6 -14 19 -22 35 -22 32 -1 75 -33 68 -52 -4 -10 2 -13 27 -10 34 4
68 -19 59 -41 -3 -9 7 -12 33 -12 23 0 54 -10 77 -24 30 -19 37 -28 33 -47 -4
-24 7 -33 18 -14 17 27 92 -2 115 -45 11 -20 19 -25 37 -20 27 6 101 -28 110
-52 4 -11 -4 -24 -23 -40 -38 -30 -22 -29 33 2 34 21 47 24 63 15 27 -14 25
-46 -3 -64 -24 -16 -90 -35 -150 -43 -46 -6 -47 -15 -3 -42 42 -27 99 -112 94
-143 -2 -18 -9 -22 -28 -20 -13 1 -34 11 -45 22 -20 19 -21 19 -33 0 -8 -14
-23 -20 -46 -20 -50 0 -67 9 -82 44 -12 28 -13 29 -14 7 0 -20 -4 -23 -25 -19
-14 3 -28 1 -31 -3 -8 -14 -40 -10 -54 6 -9 11 -16 13 -24 5 -18 -18 -53 -11
-86 16 -23 20 -34 24 -42 16 -8 -8 -8 -15 2 -26 7 -9 9 -23 6 -32 -5 -14 1
-15 54 -9 53 6 60 5 60 -10 0 -14 5 -16 28 -9 50 14 87 11 86 -8 -2 -16 1 -16
27 -3 33 18 65 19 75 4 3 -6 16 -8 27 -5 43 11 63 -40 30 -76 -9 -10 -13 -21
-10 -24 4 -4 27 16 53 45 45 50 70 61 91 40 8 -8 13 -8 17 0 10 15 51 14 63
-1 6 -7 14 -31 18 -53 l7 -40 43 49 c55 62 75 58 75 -14 0 -32 4 -49 10 -45 6
3 10 26 10 49 0 59 15 69 87 61 79 -10 84 -15 68 -74 -16 -63 -48 -147 -75
-198 -11 -22 -23 -57 -27 -76 -4 -29 -2 -37 16 -46 34 -19 25 -44 -31 -90 -81
-65 -188 -172 -326 -326 -70 -77 -187 -201 -262 -275 -115 -115 -160 -151
-300 -244 -91 -60 -223 -153 -295 -206 -146 -108 -203 -145 -291 -189 -110
-56 -136 -61 -288 -61 -159 0 -327 -20 -266 -31 19 -4 64 -14 99 -24 56 -15
79 -15 205 -5 187 15 239 33 426 148 313 192 456 286 478 313 12 15 50 48 85
72 67 49 422 405 527 530 63 75 66 77 101 71 34 -5 38 -2 79 51 41 53 133 135
152 135 18 0 20 -31 3 -57 -16 -24 -278 -332 -581 -683 -127 -147 -401 -491
-494 -621 -19 -26 -74 -101 -121 -166 -135 -185 -196 -293 -167 -293 31 0 85
61 237 270 86 116 246 322 356 456 33 40 94 114 135 165 41 51 118 141 170
202 52 60 106 124 120 141 14 18 100 115 191 217 91 101 235 265 319 364 84
99 162 186 173 194 12 8 54 16 99 19 66 4 79 2 84 -12 4 -9 -10 -65 -31 -124
-114 -325 -202 -571 -249 -696 -30 -78 -68 -181 -87 -231 -47 -129 -108 -259
-162 -341 -25 -40 -67 -116 -93 -170 -26 -55 -66 -126 -87 -159 -117 -175
-332 -444 -385 -480 -57 -38 -269 -235 -477 -440 -521 -515 -552 -538 -820
-604 -111 -28 -179 -56 -169 -72 9 -15 101 -3 274 37 108 24 312 160 554 366
208 178 633 613 872 893 111 129 284 317 326 353 52 46 85 106 94 172 4 30 16
75 26 100 11 25 32 81 47 125 16 44 62 170 104 280 42 110 112 297 156 415
174 468 185 500 220 637 9 34 25 53 90 106 l78 65 6 87 c5 96 18 122 77 163
21 14 48 22 76 22 41 0 46 -3 116 -82 40 -46 102 -123 138 -172 36 -49 80
-106 98 -126 17 -21 32 -42 32 -48 0 -6 8 -17 18 -24 10 -7 32 -33 49 -58 41
-60 181 -185 207 -185 44 0 53 108 25 279 -9 49 -8 61 5 74 20 20 41 4 56 -44
16 -48 107 -203 138 -237 34 -36 73 -57 106 -57 20 0 30 9 46 40 11 21 20 45
20 53 0 17 32 47 49 47 7 0 38 -17 69 -37 53 -36 62 -38 155 -43 78 -4 101 -9
111 -23 7 -9 21 -65 30 -125 10 -59 21 -132 27 -162 5 -30 16 -109 25 -175 40
-310 69 -445 95 -445 11 0 11 141 -1 200 -5 25 -16 81 -24 125 -9 44 -23 187
-31 318 -8 132 -18 243 -21 248 -3 5 -2 39 1 74 l7 65 101 105 c55 57 108 107
118 110 20 7 71 -26 93 -60 14 -22 14 -24 -18 -355 -46 -464 -70 -660 -101
-815 -66 -333 -66 -359 6 -416 22 -17 47 -45 56 -63 9 -17 98 -146 198 -286
300 -420 361 -512 387 -580 25 -66 66 -115 238 -289 218 -219 549 -457 675
-485 17 -4 38 -9 48 -12 9 -3 17 -1 17 5 0 6 -59 40 -132 77 -72 36 -155 81
-184 100 -68 45 -267 252 -366 379 -43 55 -93 120 -112 145 -19 25 -52 71 -73
103 -181 276 -418 620 -555 804 -96 129 -98 134 -92 299 2 76 6 260 8 408 2
147 9 296 15 330 5 33 13 93 16 131 15 188 52 420 70 435 12 10 71 -32 164
-119 20 -19 52 -41 71 -50 19 -9 51 -28 70 -42 32 -25 156 -92 324 -177 38
-19 89 -47 114 -63 25 -16 84 -41 131 -55 198 -60 400 -128 456 -154 76 -36
228 -78 322 -90 40 -5 82 -12 95 -15 33 -7 304 -27 426 -31 81 -2 108 -7 123
-20 38 -35 149 -267 193 -407 5 -15 13 -17 49 -12 40 6 54 1 193 -73 222 -118
308 -167 644 -370 438 -264 525 -319 618 -389 108 -81 185 -124 237 -134 23
-4 88 -28 143 -53 55 -25 158 -64 229 -87 185 -61 723 -262 777 -291 33 -18
373 -53 616 -63 41 -2 163 -9 270 -15 219 -13 278 -10 401 25 173 49 445 123
478 130 34 7 459 213 486 235 22 18 7 33 -27 26 -36 -7 -144 -54 -268 -116
-117 -58 -406 -145 -575 -171 -300 -47 -296 -47 -662 -39 -193 4 -355 10 -362
14 -6 4 -73 14 -149 21 -150 16 -156 17 -602 183 -292 109 -403 152 -416 163
-5 4 -73 31 -149 59 -156 58 -178 68 -244 114 -25 18 -156 100 -291 181 -538
325 -656 399 -685 425 -33 31 -246 170 -372 244 -126 73 -168 132 -126 178 15
17 15 18 -11 18 -79 0 -168 84 -200 188 -11 35 37 51 139 44 56 -3 84 -1 89 7
4 6 22 11 41 11 38 0 75 31 76 64 0 12 5 37 12 56 10 31 17 36 52 40 38 5 41
8 66 69 29 70 29 87 -4 97 -45 13 -57 34 -57 95 0 47 -3 59 -18 64 -11 3 -93
9 -184 14 -91 5 -175 14 -187 20 -48 26 -440 287 -481 321 -25 21 -76 57 -115
82 -72 46 -139 112 -132 131 2 6 10 15 18 20 14 9 99 -21 841 -290 84 -31 101
-28 109 17 3 19 9 47 13 61 7 25 2 30 -66 72 -40 25 -86 51 -103 58 -16 8 -77
39 -135 70 -58 32 -134 69 -170 82 -124 47 -745 329 -762 345 -9 9 -32 43 -50
74 -136 233 -290 462 -331 492 -25 18 -40 20 -118 18 l-90 -4 -80 -56 c-45
-31 -91 -63 -103 -71 -11 -8 -38 -28 -59 -44 -48 -36 -66 -37 -142 -1 -33 15
-116 51 -185 78 -79 32 -126 57 -128 67 -2 9 20 43 47 75 115 135 260 311 314
380 32 41 77 85 101 99 47 28 149 65 177 65 11 0 43 -21 73 -47 68 -61 249
-212 284 -238 15 -11 81 -65 147 -120 66 -55 145 -120 176 -145 31 -25 103
-85 161 -135 57 -49 148 -126 203 -170 97 -79 203 -168 363 -308 46 -40 100
-92 120 -117 105 -128 239 -260 264 -260 5 0 26 17 49 37 l41 37 272 7 c149 4
375 10 501 14 127 4 318 8 425 10 327 3 452 13 580 46 63 16 124 34 135 39 35
17 318 110 336 110 9 0 22 7 29 15 7 8 31 20 54 25 22 6 115 35 206 65 91 29
192 61 225 70 106 30 189 79 642 379 278 183 469 319 681 484 40 31 98 86 127
123 30 36 112 122 184 190 93 88 131 130 131 146 0 15 -6 23 -18 23 -10 0
-111 -95 -229 -214z m-9591 -106 c24 -38 91 -143 149 -233 59 -90 117 -182
129 -204 l23 -40 -31 -54 c-44 -77 -68 -143 -108 -296 l-36 -135 41 -41 c60
-59 53 -89 -26 -108 -112 -26 -182 -39 -219 -39 -26 0 -51 -7 -67 -20 -28 -23
-56 -26 -58 -7 -4 33 3 135 18 262 8 77 16 156 18 175 2 19 8 78 14 130 12
106 38 415 47 560 7 118 8 120 38 120 19 0 33 -14 68 -70z m2142 -146 c0 -60
-4 -121 -7 -136 -7 -26 -9 -27 -69 -25 -51 2 -63 5 -66 20 -3 14 98 234 116
252 20 19 27 -11 26 -111z m1573 -536 c12 -13 58 -96 103 -186 65 -129 80
-165 70 -177 -14 -17 -28 -13 -225 75 -22 9 -80 34 -130 54 -130 53 -140 59
-140 84 0 19 24 38 115 97 129 82 170 93 207 53z m-1585 -787 c102 -79 110
-88 99 -110 -6 -10 -54 -61 -106 -112 -53 -52 -103 -106 -111 -121 -8 -16 -21
-28 -29 -28 -14 0 -80 81 -104 127 -13 26 4 67 91 211 60 100 71 102 160 33z"/>
<path d="M1291 4834 c0 -11 3 -14 6 -6 3 7 2 16 -1 19 -3 4 -6 -2 -5 -13z"/>
<path d="M2133 4545 c0 -22 2 -30 4 -17 2 12 2 30 0 40 -3 9 -5 -1 -4 -23z"/>
<path d="M1907 3963 c-4 -3 -7 -13 -7 -22 1 -13 3 -13 11 2 11 19 8 33 -4 20z"/>
</g>
</svg>
