<svg width="711" height="715" viewBox="0 0 711 715" fill="none" xmlns="http://www.w3.org/2000/svg">
<path d="M380.529 478.748L382.293 414.264C477.068 400.665 541.117 312.782 527.587 218.005C514.057 123.227 426.23 59.2324 331.455 72.8315C236.68 86.4305 172.631 174.314 186.161 269.091C198.414 349.217 263.809 409.909 344.437 415.481L351.045 479.229L374.7 714.429L380.529 478.748ZM384.508 330.758L386.002 287.39C410.024 272.625 416.615 239.354 401.869 215.34C387.123 191.326 353.861 184.757 329.839 199.522C305.818 214.287 299.226 247.558 313.972 271.572C318.888 279.577 325.713 285.304 332.357 288.939L336.187 332.895C286.772 322.472 256.142 273.489 267.553 222.922C278.01 173.493 327.008 142.824 377.561 154.201C426.976 164.624 457.607 213.607 446.195 264.174C439.421 295.352 416.311 320.583 384.508 330.758Z" fill="#F3771C"/>
</svg>
